# Blender 4.3.2
# www.blender.org
mtllib lantern.mtl
o Cube
v 0.517547 -0.123083 -0.517249
v 0.665875 2.837831 0.066645
v 0.517547 -0.123083 0.517323
v 0.665875 2.837831 -0.118120
v -0.517025 -0.123083 -0.517249
v 0.850640 2.837831 0.066645
v -0.517025 -0.123083 0.517323
v 0.850640 2.837831 -0.118120
v 0.911753 -0.123083 0.911530
v -0.000000 3.395993 0.086110
v -0.000000 3.395993 -0.137585
v -0.911232 -0.123083 0.911530
v -0.000000 3.574315 -0.137585
v 0.911753 -0.123083 -0.911455
v -0.911232 -0.123083 -0.911455
v -0.000000 3.574315 0.086110
v 0.560611 3.215746 -0.132757
v 0.517547 2.105071 0.517323
v -0.517025 2.105071 0.517323
v 0.670181 3.356114 -0.132757
v 0.670181 3.356114 0.081281
v 0.517547 2.105071 -0.517249
v -0.517025 2.105071 -0.517249
v 0.560611 3.215746 0.081281
v 0.922807 2.107037 0.904163
v -0.665875 2.837831 0.066645
v -0.900794 2.107037 0.904163
v 0.922807 2.107037 -0.901018
v -0.900794 2.107037 -0.901018
v -0.665875 2.837831 -0.118120
v 0.279939 2.922696 0.265509
v -0.850640 2.837831 0.066645
v -0.256361 2.922696 0.265509
v 0.279939 2.922696 -0.262141
v -0.850640 2.837831 -0.118120
v -0.256361 2.922696 -0.262141
v -0.560611 3.215746 -0.132757
v -0.567515 0.379818 0.567515
v -0.586994 0.990946 0.586994
v -0.670181 3.356114 -0.132757
v -0.567515 1.602074 0.567515
v -0.670181 3.356114 0.081281
v -0.567515 1.602074 -0.567515
v -0.560611 3.215746 0.081281
v -0.586994 0.990946 -0.586994
v -0.567515 0.379818 -0.567515
v 0.567515 0.379818 0.567515
v 0.586994 0.990946 0.586994
v 0.567515 1.602074 0.567515
v 0.567515 1.602074 -0.567515
v 0.586994 0.990946 -0.586994
v 0.567515 0.379818 -0.567515
v -0.526499 2.609867 0.534534
v -0.526499 2.609867 -0.531166
v 0.550077 2.609867 0.534534
v 0.550077 2.609867 -0.531166
v 0.876090 -0.605191 -0.876090
v -0.876090 -0.605191 0.876090
v 0.876090 -0.605191 0.876090
v -0.876090 -0.605191 -0.876090
v -0.976249 -0.355310 0.976249
v 0.976249 -0.355310 -0.976249
v 0.976249 -0.355310 0.976249
v -0.976249 -0.355310 -0.976249
v -0.988549 2.392194 -0.988549
v 1.012127 2.392194 -0.988549
v -0.988549 2.392194 0.991918
v 1.012127 2.392194 0.991918
v 0.439973 2.922696 0.425543
v -0.416395 2.922696 0.425543
v 0.439973 2.922696 -0.422175
v -0.416395 2.922696 -0.422175
v 0.279939 2.685581 0.265509
v -0.256361 2.685581 0.265509
v 0.279939 2.685581 -0.262141
v -0.256361 2.685581 -0.262141
v 0.839882 2.473339 0.055887
v 0.839882 2.473339 -0.107362
v 0.674330 2.551331 0.058189
v 0.674330 2.551331 -0.109664
v -0.839559 2.462384 0.055564
v -0.839559 2.462384 -0.107039
v -0.674663 2.540067 0.057856
v -0.674663 2.540067 -0.109332
vn -0.9950 0.0999 -0.0000
vn -0.0000 0.2685 0.9633
vn -0.9630 0.2696 -0.0000
vn 0.9635 0.2676 -0.0000
vn -0.0000 0.2687 -0.9632
vn -0.0000 1.0000 -0.0000
vn -0.0000 -1.0000 -0.0051
vn -0.0000 0.0993 0.9951
vn -0.0000 0.0994 -0.9950
vn 0.9951 0.0989 -0.0000
vn 0.0049 -1.0000 -0.0000
vn -0.0051 -1.0000 -0.0000
vn -0.0000 -1.0000 0.0051
vn 1.0000 -0.0000 -0.0000
vn -0.0000 0.3290 -0.9443
vn -0.0000 0.3290 0.9443
vn 0.9951 -0.0989 -0.0000
vn 0.9995 -0.0319 -0.0000
vn 0.9995 0.0319 -0.0000
vn -0.0000 -0.0995 -0.9950
vn -0.0000 -0.0319 -0.9995
vn -0.0000 0.0319 -0.9995
vn -0.0000 -0.0993 0.9951
vn -0.0000 -0.0319 0.9995
vn -0.0000 0.0319 0.9995
vn -0.9950 -0.0999 -0.0000
vn -0.9995 -0.0319 -0.0000
vn -0.9995 0.0319 -0.0000
vn 0.4262 0.9046 -0.0000
vn -0.0000 0.9030 -0.4297
vn -0.0000 0.9030 0.4297
vn -0.4262 0.9046 -0.0000
vn 0.9433 0.3320 -0.0000
vn -0.9433 0.3320 -0.0000
vn -0.0000 -0.3721 -0.9282
vn 0.9282 -0.3721 -0.0000
vn -0.9282 -0.3721 -0.0000
vn -0.0000 -0.3721 0.9282
vn -0.9558 -0.2941 -0.0000
vn -0.0000 -0.2941 0.9558
vn -0.0000 -0.2934 -0.9560
vn 0.9543 -0.2989 -0.0000
vn -0.0000 -0.0000 -1.0000
vn -0.0000 -0.0000 1.0000
vn -1.0000 -0.0000 -0.0000
vn -0.9996 -0.0295 -0.0000
vn -0.0000 -0.0295 -0.9996
vn 0.9996 -0.0295 -0.0000
vn -0.0000 -0.0295 0.9996
vn 0.0057 -0.0045 -1.0000
vn 0.3096 0.9509 -0.0000
vn -0.3061 -0.9520 -0.0000
vn 0.0086 -0.0000 1.0000
vn -0.0000 -0.0387 0.9993
vn -0.9633 -0.2683 -0.0000
vn 0.9444 0.3288 -0.0000
vn 0.0250 -0.0195 -0.9995
vn -0.0057 -0.0045 -1.0000
vn -0.3096 0.9509 -0.0000
vn 0.3061 -0.9520 -0.0000
vn -0.0057 -0.0045 1.0000
vn 0.9633 -0.2683 -0.0000
vn -0.9444 0.3288 -0.0000
vn -0.0000 -0.0387 -0.9993
vn -0.0000 -1.0000 -0.0000
vn 0.0086 -0.0000 -1.0000
vn 0.0057 -0.0045 1.0000
vn 0.0250 -0.0195 0.9995
vn -0.0086 -0.0000 -1.0000
vn -0.0086 -0.0000 1.0000
vn -0.0250 -0.0195 0.9995
vn -0.0250 -0.0195 -0.9995
vt 0.019485 0.774270
vt 0.937990 1.000016
vt 0.980553 0.774270
vt 0.508018 0.840100
vt 0.473302 0.556898
vt 0.508018 0.547142
vt 0.851315 0.900772
vt 0.816520 0.617537
vt 0.851315 0.607815
vt 0.744155 0.891051
vt 0.778945 0.607815
vt 0.778945 0.900772
vt 0.176148 0.846290
vt 0.210865 0.563088
vt 0.210865 0.856045
vt 0.356302 0.059148
vt 0.297154 0.273525
vt 0.297154 -0.000000
vt 0.570679 0.000000
vt 0.511531 0.059148
vt 0.511531 0.214377
vt 0.356302 0.214377
vt 0.570679 0.273525
vt 0.510426 0.486336
vt 0.568007 0.273525
vt 0.568007 0.547142
vt 0.980490 0.774270
vt 0.062174 1.000016
vt 0.019422 0.774270
vt 0.938180 1.000016
vt 0.061985 1.000016
vt 0.355196 0.486336
vt 0.297154 0.547142
vt 0.355196 0.331107
vt 0.510426 0.331107
vt 0.297154 0.273525
vt 0.639159 0.863102
vt 0.674736 0.942272
vt 0.639159 0.942272
vt 0.911480 0.161532
vt 0.864754 0.016520
vt 0.911480 -0.000000
vt 0.958204 0.161532
vt 0.911480 0.016520
vt 0.958204 0.000000
vt 0.937990 0.000016
vt 0.019485 0.225719
vt 0.061985 0.000016
vt 0.997046 0.499995
vt 0.002992 0.499995
vt 0.062174 0.000016
vt 0.980490 0.225719
vt 0.938180 0.000016
vt 0.019422 0.225719
vt 0.996982 0.499995
vt 0.002929 0.499995
vt 0.980490 0.225719
vt 0.019422 0.225719
vt 0.002929 0.499995
vt 0.996982 0.499995
vt 0.980553 0.225719
vt 0.228527 0.069327
vt 0.140099 0.050684
vt 0.165284 0.050684
vt 0.000000 0.000000
vt 0.297154 0.000000
vt 0.140444 0.025844
vt 0.297154 0.300186
vt 0.068627 0.230859
vt 0.000000 0.300186
vt 0.140149 0.253090
vt 0.228527 0.230859
vt 0.165234 0.253090
vt 0.164890 0.277831
vt 0.567002 1.000000
vt 0.520157 0.856453
vt 0.567002 0.840100
vt 0.520157 1.000000
vt 0.473302 0.856453
vt 0.520157 0.840100
vt 0.248546 0.841017
vt 0.248546 0.578116
vt 0.816520 0.885744
vt 0.816520 0.622843
vt 0.888882 0.885744
vt 0.888882 0.622843
vt 0.545700 0.825072
vt 0.545700 0.562170
vt 0.974682 0.891802
vt 0.931831 0.607815
vt 0.974682 0.620948
vt 0.291497 0.849872
vt 0.248546 0.563088
vt 0.291497 0.576255
vt 0.931831 0.621217
vt 0.888882 0.908001
vt 0.888882 0.607815
vt 0.963162 0.286692
vt 0.920303 0.570679
vt 0.920303 0.273525
vt 0.761572 0.104480
vt 0.737561 -0.000000
vt 0.761572 0.024012
vt 0.864754 0.000000
vt 0.840742 0.024012
vt 0.864754 0.128492
vt 0.737561 0.128491
vt 0.840742 0.104480
vt 0.816730 0.208959
vt 0.737561 0.128492
vt 0.816730 0.128492
vt 0.208263 0.856045
vt 0.243837 0.936513
vt 0.208263 0.936513
vt 0.568007 0.863102
vt 0.603582 0.943570
vt 0.568007 0.943570
vt 0.603582 0.863102
vt 0.639159 0.942272
vt 0.603582 0.942272
vt 0.899065 0.218313
vt 0.925519 0.261306
vt 0.900334 0.261306
vt 0.678539 0.607838
vt 0.721539 0.634292
vt 0.678539 0.635561
vt 0.178344 0.933659
vt 0.204452 0.988356
vt 0.179958 0.988356
vt 0.681211 0.255264
vt 0.724211 0.228810
vt 0.735916 0.253650
vt 0.621813 0.651355
vt 0.568007 0.735470
vt 0.600753 0.634915
vt 0.875000 0.500000
vt 0.625000 0.750000
vt 0.625000 0.500000
vt 0.263626 0.501297
vt 0.296465 0.400742
vt 0.295741 0.501297
vt 0.958928 -0.000000
vt 0.991768 0.084115
vt 0.958204 0.084115
vt 0.624484 0.211747
vt 0.570679 0.127632
vt 0.597432 0.127632
vt 0.681211 0.227541
vt 0.928984 0.161532
vt 0.926787 0.218313
vt 0.208263 0.856045
vt 0.206066 0.933659
vt 0.866950 0.218321
vt 0.893354 0.263005
vt 0.868269 0.263005
vt 0.678539 0.863102
vt 0.723230 0.836698
vt 0.734889 0.861440
vt 0.846649 0.206120
vt 0.820589 0.262461
vt 0.818926 0.206120
vt 0.725901 0.026404
vt 0.681211 0.000000
vt 0.737561 0.001663
vt 0.621813 0.819586
vt 0.600753 0.836026
vt 0.263626 0.300186
vt 0.295741 0.300186
vt 0.991043 0.168231
vt 0.958928 0.168231
vt 0.624484 0.043516
vt 0.603425 0.027076
vt 0.681211 0.027723
vt 0.864754 0.161532
vt 0.894673 0.218321
vt 0.816730 0.128492
vt 0.678539 0.835380
vt 0.000000 0.300186
vt 0.262901 0.563088
vt 0.000000 0.563088
vt 0.473302 0.830423
vt 0.816520 0.891062
vt 0.744155 0.617526
vt 0.176148 0.572765
vt 0.674736 0.863102
vt 0.864754 0.145012
vt 0.911480 0.145012
vt 0.068627 0.069327
vt 0.164939 0.025844
vt 0.140493 0.277831
vt 0.520157 0.983647
vt 0.473302 0.983647
vt 0.931831 0.904969
vt 0.248546 0.863274
vt 0.931831 0.894834
vt 0.963162 0.557545
vt 0.737561 0.208959
vt 0.243837 0.856045
vt 0.603582 0.863102
vt 0.639159 0.863102
vt 0.733245 0.609452
vt 0.594761 0.735470
vt 0.875000 0.750000
vt 0.262901 0.400742
vt 0.991043 -0.000000
vt 0.603425 0.228187
vt 0.896869 0.161532
vt 0.176148 0.856045
vt 0.844986 0.262461
vt 0.848845 0.128492
vt 0.262901 0.300186
s 0
usemtl Material
f 63/4/2 12/5/2 61/6/2
f 61/7/3 15/8/3 64/9/3
f 14/10/4 63/11/4 62/12/4
f 15/13/5 62/14/5 64/15/5
f 3/16/6 12/17/6 9/18/6
f 3/16/6 14/19/6 1/20/6
f 5/21/6 12/17/6 7/22/6
f 1/20/6 15/23/6 5/21/6
f 22/24/7 29/25/7 28/26/7
f 18/32/11 28/26/11 25/33/11
f 19/34/12 29/25/12 23/35/12
f 18/32/13 27/36/13 19/34/13
f 33/37/14 76/38/14 36/39/14
f 54/40/15 71/41/15 56/42/15
f 55/43/16 70/44/16 53/45/16
f 56/62/29 79/63/29 80/64/29
f 68/65/29 66/66/29 77/67/29
f 65/68/30 56/62/30 66/66/30
f 68/65/31 53/69/31 67/70/31
f 83/71/32 54/72/32 84/73/32
f 65/68/32 67/70/32 82/74/32
f 56/75/33 69/76/33 55/77/33
f 53/78/34 72/79/34 54/80/34
f 60/81/35 62/14/35 57/82/35
f 57/83/36 63/11/36 59/84/36
f 58/85/37 64/9/37 60/86/37
f 59/87/38 61/6/38 58/88/38
f 27/89/39 65/90/39 29/91/39
f 25/92/40 67/93/40 27/94/40
f 28/95/41 65/96/41 66/97/41
f 25/98/42 66/99/42 68/100/42
f 33/101/6 69/102/6 31/103/6
f 31/103/6 71/104/6 34/105/6
f 33/101/6 72/106/6 70/107/6
f 34/105/6 72/106/6 36/108/6
f 76/109/6 73/110/6 75/111/6
f 31/112/43 74/113/43 33/114/43
f 36/115/44 75/116/44 34/117/44
f 34/118/45 73/119/45 31/120/45
f 2/121/46 80/122/46 79/123/46
f 8/124/47 80/125/47 4/126/47
f 8/127/48 77/128/48 78/129/48
f 6/130/49 79/131/49 77/132/49
f 17/133/50 13/134/50 20/135/50
f 11/136/45 16/137/45 13/138/45
f 20/139/51 16/140/51 21/141/51
f 17/142/52 10/143/52 11/144/52
f 24/145/53 16/146/53 10/147/53
f 6/130/54 24/145/54 2/148/54
f 2/121/55 17/149/55 4/150/55
f 8/127/56 21/151/56 6/152/56
f 8/124/57 17/133/57 20/135/57
f 30/153/48 83/154/48 84/155/48
f 35/156/47 84/157/47 82/158/47
f 35/159/46 81/160/46 32/161/46
f 83/162/49 32/163/49 81/164/49
f 13/134/58 37/165/58 40/166/58
f 16/140/59 40/167/59 42/168/59
f 11/144/60 44/169/60 37/170/60
f 44/171/61 16/146/61 42/172/61
f 44/171/54 32/163/54 26/173/54
f 37/174/62 26/175/62 30/153/62
f 42/176/63 35/159/63 32/161/63
f 35/156/64 37/165/64 30/177/64
f 58/178/65 57/179/65 59/180/65
f 63/4/2 9/181/2 12/5/2
f 61/7/3 12/182/3 15/8/3
f 14/10/4 9/183/4 63/11/4
f 15/13/5 14/184/5 62/14/5
f 3/16/6 7/22/6 12/17/6
f 3/16/6 9/18/6 14/19/6
f 5/21/6 15/23/6 12/17/6
f 1/20/6 14/19/6 15/23/6
f 22/24/7 23/35/7 29/25/7
f 18/32/11 22/24/11 28/26/11
f 19/34/12 27/36/12 29/25/12
f 18/32/13 25/33/13 27/36/13
f 33/37/14 74/185/14 76/38/14
f 54/40/15 72/186/15 71/41/15
f 55/43/16 69/187/16 70/44/16
f 56/62/29 55/188/29 79/63/29
f 77/67/29 79/63/29 55/188/29
f 66/66/29 56/62/29 80/64/29
f 66/66/29 80/64/29 78/189/29
f 77/67/29 55/188/29 68/65/29
f 66/66/29 78/189/29 77/67/29
f 65/68/30 54/72/30 56/62/30
f 68/65/31 55/188/31 53/69/31
f 83/71/32 53/69/32 54/72/32
f 82/74/32 84/73/32 54/72/32
f 67/70/32 53/69/32 83/71/32
f 67/70/32 83/71/32 81/190/32
f 82/74/32 54/72/32 65/68/32
f 67/70/32 81/190/32 82/74/32
f 56/75/33 71/191/33 69/76/33
f 53/78/34 70/192/34 72/79/34
f 60/81/35 64/15/35 62/14/35
f 57/83/36 62/12/36 63/11/36
f 58/85/37 61/7/37 64/9/37
f 59/87/38 63/4/38 61/6/38
f 27/89/39 67/193/39 65/90/39
f 25/92/40 68/194/40 67/93/40
f 28/95/41 29/195/41 65/96/41
f 25/98/42 28/196/42 66/99/42
f 33/101/6 70/107/6 69/102/6
f 31/103/6 69/102/6 71/104/6
f 33/101/6 36/108/6 72/106/6
f 34/105/6 71/104/6 72/106/6
f 76/109/6 74/197/6 73/110/6
f 31/112/43 73/198/43 74/113/43
f 36/115/44 76/199/44 75/116/44
f 34/118/45 75/200/45 73/119/45
f 2/121/46 4/150/46 80/122/46
f 8/124/47 78/201/47 80/125/47
f 8/127/48 6/152/48 77/128/48
f 6/130/49 2/148/49 79/131/49
f 17/133/66 11/202/66 13/134/66
f 11/136/45 10/203/45 16/137/45
f 20/139/51 13/204/51 16/140/51
f 17/142/52 24/205/52 10/143/52
f 24/145/67 21/206/67 16/146/67
f 6/130/68 21/206/68 24/145/68
f 2/121/55 24/207/55 17/149/55
f 8/127/56 20/208/56 21/151/56
f 8/124/64 4/126/64 17/133/64
f 30/153/48 26/175/48 83/154/48
f 35/156/47 30/177/47 84/157/47
f 35/159/46 82/209/46 81/160/46
f 83/162/49 26/173/49 32/163/49
f 13/134/69 11/202/69 37/165/69
f 16/140/59 13/204/59 40/167/59
f 11/144/60 10/143/60 44/169/60
f 44/171/70 10/147/70 16/146/70
f 44/171/71 42/172/71 32/163/71
f 37/174/62 44/207/62 26/175/62
f 42/176/63 40/210/63 35/159/63
f 35/156/72 40/166/72 37/165/72
f 58/178/65 60/211/65 57/179/65
usemtl Material.002
f 41/1/1 23/2/1 43/3/1
f 49/27/8 19/28/8 41/29/8
f 50/27/9 23/28/9 22/30/9
f 49/1/10 22/2/10 18/31/10
f 1/46/17 47/47/17 3/48/17
f 47/47/18 51/49/18 48/50/18
f 48/50/19 50/3/19 49/1/19
f 5/51/20 52/52/20 1/53/20
f 46/54/21 51/55/21 52/52/21
f 45/56/22 50/27/22 51/55/22
f 7/51/23 47/57/23 38/58/23
f 47/57/24 39/59/24 38/58/24
f 48/60/25 41/29/25 39/59/25
f 5/46/26 38/47/26 46/61/26
f 38/47/27 45/49/27 46/61/27
f 39/50/28 43/3/28 45/49/28
f 41/1/1 19/31/1 23/2/1
f 49/27/8 18/30/8 19/28/8
f 50/27/9 43/29/9 23/28/9
f 49/1/10 50/3/10 22/2/10
f 1/46/17 52/61/17 47/47/17
f 47/47/18 52/61/18 51/49/18
f 48/50/19 51/49/19 50/3/19
f 5/51/20 46/54/20 52/52/20
f 46/54/21 45/56/21 51/55/21
f 45/56/22 43/29/22 50/27/22
f 7/51/23 3/53/23 47/57/23
f 47/57/24 48/60/24 39/59/24
f 48/60/25 49/27/25 41/29/25
f 5/46/26 7/48/26 38/47/26
f 38/47/27 39/50/27 45/49/27
f 39/50/28 41/1/28 43/3/28
o Cube.001
v -0.674587 2.179700 0.674587
v -0.674587 -0.179700 0.674587
v -0.674587 2.179700 -0.674587
v -0.674587 -0.179700 -0.674587
v 0.674587 2.179700 0.674587
v 0.674587 -0.179700 0.674587
v 0.674587 2.179700 -0.674587
v 0.674587 -0.179700 -0.674587
vn 1.0000 -0.0000 -0.0000
vn -0.0000 -0.0000 1.0000
vn -1.0000 -0.0000 -0.0000
vn -0.0000 -0.0000 -1.0000
vt 0.030846 -0.009080
vt 0.390846 0.990920
vt 0.030846 0.990920
vt 0.390846 -0.009080
vt 0.750847 0.990920
vt 0.750847 -0.009080
vt 1.110847 0.990920
vt 1.110847 -0.009080
vt 1.470847 0.990920
vt 1.470847 -0.009079
s 0
usemtl Material.001
f 86/212/73 87/213/73 85/214/73
f 88/215/74 91/216/74 87/213/74
f 92/217/75 89/218/75 91/216/75
f 90/219/76 85/220/76 89/218/76
f 86/212/73 88/215/73 87/213/73
f 88/215/74 92/217/74 91/216/74
f 92/217/75 90/219/75 89/218/75
f 90/219/76 86/221/76 85/220/76
